<svg width="24" height="24" viewBox="0 0 24 24" fill="none" xmlns="http://www.w3.org/2000/svg">
<g clip-path="url(#clip0_57_287)">
<path d="M8.55005 10.55C8.55005 10.8152 8.44469 11.0696 8.25716 11.2571C8.06962 11.4447 7.81527 11.55 7.55005 11.55C7.28483 11.55 7.03048 11.4447 6.84294 11.2571C6.65541 11.0696 6.55005 10.8152 6.55005 10.55C6.55005 10.2848 6.65541 10.0304 6.84294 9.84291C7.03048 9.65538 7.28483 9.55002 7.55005 9.55002C7.81527 9.55002 8.06962 9.65538 8.25716 9.84291C8.44469 10.0304 8.55005 10.2848 8.55005 10.55ZM10.55 11.55C10.8153 11.55 11.0696 11.4447 11.2572 11.2571C11.4447 11.0696 11.55 10.8152 11.55 10.55C11.55 10.2848 11.4447 10.0304 11.2572 9.84291C11.0696 9.65538 10.8153 9.55002 10.55 9.55002C10.2848 9.55002 10.0305 9.65538 9.84294 9.84291C9.65541 10.0304 9.55005 10.2848 9.55005 10.55C9.55005 10.8152 9.65541 11.0696 9.84294 11.2571C10.0305 11.4447 10.2848 11.55 10.55 11.55ZM13.55 11.55C13.8153 11.55 14.0696 11.4447 14.2572 11.2571C14.4447 11.0696 14.55 10.8152 14.55 10.55C14.55 10.2848 14.4447 10.0304 14.2572 9.84291C14.0696 9.65538 13.8153 9.55002 13.55 9.55002C13.2848 9.55002 13.0305 9.65538 12.8429 9.84291C12.6554 10.0304 12.55 10.2848 12.55 10.55C12.55 10.8152 12.6554 11.0696 12.8429 11.2571C13.0305 11.4447 13.2848 11.55 13.55 11.55Z" fill="white"/>
<path fill-rule="evenodd" clip-rule="evenodd" d="M16.207 4.893C17.5855 6.27108 18.4134 8.10501 18.5353 10.0504C18.6572 11.9957 18.0647 13.9186 16.869 15.458C16.8843 15.4713 16.8993 15.4853 16.914 15.5L21.157 19.743C21.3392 19.9316 21.44 20.1842 21.4377 20.4464C21.4354 20.7086 21.3302 20.9594 21.1448 21.1448C20.9594 21.3302 20.7086 21.4354 20.4464 21.4377C20.1842 21.44 19.9316 21.3392 19.743 21.157L15.5 16.914L15.458 16.869C13.8504 18.116 11.828 18.7037 9.80247 18.5125C7.7769 18.3213 5.90023 17.3657 4.55426 15.84C3.20829 14.3142 2.49413 12.333 2.55705 10.2994C2.61998 8.26584 3.45528 6.3326 4.89301 4.893C5.63588 4.15009 6.51781 3.56078 7.48844 3.15872C8.45908 2.75665 9.4994 2.54971 10.55 2.54971C11.6006 2.54971 12.6409 2.75665 13.6116 3.15872C14.5822 3.56078 15.4641 4.15009 16.207 4.893ZM6.30701 14.793C6.86414 15.3502 7.52557 15.7922 8.25352 16.0938C8.98147 16.3954 9.7617 16.5506 10.5497 16.5507C11.3376 16.5507 12.1178 16.3956 12.8458 16.0941C13.5738 15.7926 14.2353 15.3506 14.7925 14.7935C15.3497 14.2364 15.7917 13.5749 16.0933 12.847C16.3949 12.119 16.5501 11.3388 16.5502 10.5509C16.5502 9.76291 16.3951 8.98266 16.0936 8.25467C15.7921 7.52668 15.3501 6.8652 14.793 6.308C13.6647 5.19792 12.1434 4.57866 10.5606 4.58511C8.9778 4.59155 7.46165 5.22318 6.34242 6.34241C5.22318 7.46165 4.59155 8.9778 4.58511 10.5606C4.57866 12.1434 5.19693 13.6647 6.30701 14.793Z" fill="white"/>
</g>
<defs>
<clipPath id="clip0_57_287">
<rect width="24" height="24" fill="white"/>
</clipPath>
</defs>
</svg>
